<svg viewBox="1097.2674418604652 1252.4499999999998 1253.0523255813957 1489.3999999999999" xmlns="http://www.w3.org/2000/svg" xmlns:xlink="http://www.w3.org/1999/xlink" overflow="visible" width="1253.0523255813957px" height="1489.3999999999999px"><defs><polygon id="mastercharactersitting-on-floor-path-1" points="0 0.216 1141.521 0.216 1141.521 422.785934 0 422.785934"/></defs><g id="Master/Character/Sitting On Floor" stroke="none" stroke-width="1" fill="none" fill-rule="evenodd"><g id="Upper Body" transform="translate(911.000000, 1329.000000) scale(1 1)"><defs><polygon id="upper-bodywith-laptop-path-1" points="0.1808 0.1553 298.703924 0.1553 298.703924 343 0.1808 343"/><polygon id="upper-bodywith-laptop-path-3" points="0.550418291 0.388 141.311628 0.388 141.311628 92.088834 0.550418291 92.088834"/></defs><g id="Upper Body/With Laptop" stroke="none" stroke-width="1" fill="none" fill-rule="evenodd"><path d="M724.954254,220 C724.954254,220 721.26343,301.153386 673.924004,329.799638 C630.972611,355.790794 721.968632,506.610475 819.857852,497.613536 C873.442212,492.688212 886,346.158072 886,346.158072 C886,346.158072 842.733964,337.796917 858.715877,271.819367 L724.954254,220 Z" id="Neck" fill="#ecafa3"/><path d="M803.337113,302.515641 C739.876612,294.840687 694.077698,253.11575 687.664652,183.898064 C669.216286,186.83496 664.86504,138.764927 670.003065,123.322958 C675.146083,107.858975 691.933027,116.900812 691.933027,116.900812 C692.862251,114.457234 693.652358,111.898916 694.303348,109.225857 C722.02532,-4.48555283 799.669805,0.0243586862 799.669805,0.0243586862 C942.344355,7.45715716 908.914243,153.120195 900.762895,191.763142 C892.610548,230.410091 864.683894,309.927426 803.337113,302.515641 Z" id="Head" fill="#ecafa3"/><g id="Group-25" transform="translate(266.000000, 320.000000)"><g id="Group-19" transform="translate(0.000000, 0.612000)"><path d="M105.050047,289.936251 C33.5168788,376.727653 8.92577071,446.699768 31.2767231,499.852598 C64.8031518,579.581843 146.951413,496.522302 192.490195,395.604271 C222.849383,328.325583 260.283957,276.925705 304.793918,241.404634 L105.050047,289.936251 Z" id="Path" fill="#ecafa3" transform="translate(164.044509, 386.561708) rotate(-10.000000) translate(-164.044509, -386.561708)"/><g id="Group-3" transform="translate(695.000000, 361.000000)"><mask id="upper-bodywith-laptop-mask-2" fill="#ffffff"><use xlink:href="#upper-bodywith-laptop-path-1" fill="#ffffff"/></mask><g id="Clip-2"/></g><path d="M280.8551,41.1066 C363.7551,15.4706 389.3011,14.0266 389.3011,14.0266 L476.8081,32.8846 C476.8081,32.8846 524.7691,95.9186 528.8791,152.1006 C528.8791,152.1006 530.2491,78.1046 561.7671,27.4036 C561.7671,27.4036 700.4791,26.1286 752.7731,80.7306 C835.3711,166.9736 833.813167,318.3006 833.813167,318.3006 L697.5221,332.3166 L752.7731,255.388 C752.7731,255.388 756.263179,568.804637 748.041179,649.652637 C644,764.422821 270,675.591107 270,675.591107 C270,675.591107 278.1151,416.25183 279.4851,345.3136 C280.8551,274.37537 254.6201,283.9566 218.4531,371.8906 C188.8861,443.7816 94.8851,294.7296 94.8851,294.7296 C94.8851,294.7296 152.5811,80.7726 280.8551,41.1066 Z" id="Fill-4" fill="#1BC0D7"/><path d="M704.0424,431.7121 C704.0424,431.7121 771.3394,407.5801 839.7714,421.8301 C839.7714,421.8301 838.8854,399.4921 839.5874,369.9961 C840.1634,345.7711 853.4304,308.2791 805.5564,312.3171 C749.8404,317.0161 725.9594,317.5081 701.7344,328.4671 C701.7344,328.4671 695.9674,408.6411 704.0424,431.7121" id="Fill-6" fill="#FCEBEC"/><path d="M63.9394,341.7921 L93.2847063,249.4471 C93.2847063,249.4471 201.904517,226.7581 244.9394,320.6421 L212.685338,404.2371 C212.685338,404.2371 152.370466,315.2971 63.9394,341.7921" id="Fill-10" fill="#237978"/><g id="Group-14" transform="translate(338.000000, 0.000000)"><mask id="upper-bodywith-laptop-mask-4" fill="#ffffff"><use xlink:href="#upper-bodywith-laptop-path-3" fill="#ffffff"/></mask><g id="Clip-13"/><path d="M52.6986,0.4875 C52.6986,0.4875 -2.7084,19.2415 0.7016,24.3555 C4.1106,29.4695 102.4766,94.8915 109.8506,91.9955 C117.2246,89.0985 144.8776,36.6905 140.9276,31.4235 C136.9766,26.1565 57.4346,-1.4785 52.6986,0.4875" id="Fill-12" fill="#237978" mask="url(#upper-bodywith-laptop-mask-4)"/></g><path d="M650.6088,23.2834 C650.6088,23.2834 698.2988,57.1534 693.5648,61.0734 C688.8308,64.9934 575.8238,99.4234 569.5908,94.5314 C563.3598,89.6394 551.9168,31.4994 557.2118,27.5884 C562.5088,23.6774 646.6358,20.0404 650.6088,23.2834" id="Fill-15" fill="#237978"/><path d="M123.259851,445.031349 C166.893554,466.002349 153.233851,474.731349 174.524851,487.829349 C195.815851,500.928349 228.449851,535.078349 239.694851,527.258349 C250.938851,519.438349 247.765851,512.512349 236.068851,502.885349 C224.372851,493.257349 188.169851,461.709349 192.145851,456.921349 C196.122851,452.133349 257.341851,520.465349 275.349851,508.401349 C293.357851,496.336349 254.631851,465.557349 235.864851,452.620349 C217.098851,439.684349 206.592851,428.138349 212.609851,426.196349 C218.626851,424.255349 289.502851,499.367349 303.228851,487.951349 C316.956851,476.535349 291.560851,450.435349 272.692851,437.256349 C253.825851,424.077349 224.797851,402.906349 224.797851,402.906349 C224.797851,402.906349 262.223851,418.298349 291.053851,445.811349 C319.883851,473.323349 326.829851,471.564349 330.441851,465.221349 C334.053851,458.878349 304.306851,424.060349 304.306851,424.060349 C304.306851,424.060349 305.316851,383.621349 266.957851,370.249349 C228.598851,356.878349 199.545851,336.218349 159.169851,339.440349 C118.793851,342.660349 106.355352,366.565153 106.355352,366.565153 C106.355352,366.565153 79.6261472,424.060349 123.259851,445.031349 Z" id="Fill-8" fill="#ecafa3" transform="translate(214.499157, 433.756203) rotate(30.000000) translate(-214.499157, -433.756203)"/><path d="M662.9867,209.88 L572.1647,209.88 C568.4677,209.88 565.4707,206.884 565.4707,203.188 L565.4707,195.319 C565.4707,191.624 568.4677,188.627 572.1647,188.627 L662.9867,188.627 C666.6827,188.627 669.6787,191.624 669.6787,195.319 L669.6787,203.188 C669.6787,206.884 666.6827,209.88 662.9867,209.88" id="Fill-17" fill="#237978"/></g><g id="Group-24" transform="translate(397.000000, 175.000000)"><path d="M185.2874,372.4279 L2.5724,321.7809 C2.5724,321.7809 -8.7866,309.7899 24.6594,306.6349 C58.1044,303.4799 407.5584,294.1429 407.5584,294.1429 L185.2874,372.4279 Z" id="Fill-20" fill="#204EB2"/><path d="M703.3129,371.8791 L190.8269,371.8791 C181.3339,371.8791 173.6369,364.1841 173.6369,354.6901 L220.1609,17.2031 C220.1609,7.7101 227.8559,0.0141 237.3489,0.0141 L749.8349,0.0141 C759.3289,0.0141 767.0249,7.7101 767.0249,17.2031 L720.5009,354.6901 C720.5009,364.1841 712.8059,371.8791 703.3129,371.8791" id="Fill-22" fill="#3267C8"/></g><g id="Group-2" transform="translate(893.239277, 513.555823) scale(-1, 1) rotate(-72.000000) translate(-893.239277, -513.555823) translate(800.239277, 441.555823)"><path d="M34.8019558,0.721228206 C34.8019558,0.721228206 30.1385768,5.272 25.5025768,10.938 C20.8665768,16.604 24.9875768,17.635 14.6855768,28.452 C4.38357684,39.27 -14.1604232,66.57 18.2905768,108.294 C50.7435768,150.018 61.5605768,146.411 74.9535768,139.2 C88.3455768,131.988 89.8915768,126.838 115.131577,124.262 C140.371577,121.687 164.581577,96.961 164.066577,90.78 L163.551577,84.599 C163.551577,84.599 186.730577,75.842 185.186577,66.055 C183.640577,56.268 176.944577,57.298 176.944577,57.298 C176.944577,57.298 181.580577,52.662 177.974577,44.42 C174.368577,36.179 157.370577,37.724 137.795577,40.3 C118.222577,42.875 67.7415768,53.177 64.6505768,51.117 C61.5605768,49.057 62.5905768,45.966 74.4375768,44.42 C86.2855768,42.875 134.190577,42.36 134.190577,28.967 C134.190577,15.574 119.767577,12.999 91.9515768,13.514 C64.1355768,14.029 58.9845768,12.483 52.2885768,15.06 L39.9277765,16.4968824 C36.5105627,5.9797796 34.8019558,0.721228206 34.8019558,0.721228206 Z" id="Fill-12" fill="#ecafa3"/><path d="M177.350177,57.2402 C177.350177,57.2402 178.830177,56.1722 167.807177,60.3812 C163.793177,61.9132 158.133177,63.5122 150.159177,65.0242 C120.282177,70.6902 73.4081768,80.9932 58.9851768,83.0532 C44.5611768,85.1142 56.4091768,88.2042 89.3761768,81.5082 C122.343177,74.8112 161.588177,65.8282 163.350177,65.2402 C166.350177,64.2402 175.350177,61.2402 177.350177,57.2402" id="Fill-14" fill="#000"/><path d="M116.349877,99.2405 C103.608877,102.4255 82.3498768,107.2405 80.1038768,107.7785 C76.0968768,108.7395 68.2558768,110.3545 68.2558768,110.3545 C68.2558768,110.3545 68.3498768,113.2405 92.3498768,108.2405 C98.3048768,107.0005 109.349877,105.2405 116.349877,103.2405 C122.788877,101.4005 146.037877,95.4165 149.128877,92.8405 C152.218877,90.2645 152.733877,87.6895 152.733877,87.6895 C152.733877,87.6895 128.349877,96.2405 116.349877,99.2405 Z" id="Fill-16" fill="#000"/></g></g></g></g><g id="Lower Body/Sitting on Floor" transform="translate(1165.000000, 2270.000000) scale(-1, 1) translate(-1165.000000, -2270.000000) translate(0.000000, 1832.000000) scale(1 1)"><defs><polygon id="lower-bodysitting-on-floorlegs-crossed-1-path-1" points="0 0.216 1141.521 0.216 1141.521 422.785934 0 422.785934"/></defs><g id="Lower Body/Sitting on Floor/Legs Crossed 1" stroke="none" stroke-width="1" fill="none" fill-rule="evenodd"><g id="Group-46" transform="translate(69.000000, 357.000000)"><path d="M583.8821,306.5582 C583.8821,306.5582 541.1281,325.1022 535.9771,317.8902 C530.8261,310.6792 575.1251,355.4942 575.1251,355.4942 L607.0621,337.4642 L583.8821,306.5582 Z" id="Fill-1" fill="#ecafa3"/><path d="M583.8821,306.5582 C583.8821,306.5582 541.1281,325.1022 535.9771,317.8902 C530.8261,310.6792 575.1251,355.4942 575.1251,355.4942 L607.0621,337.4642 L583.8821,306.5582 Z" id="Stroke-3" stroke="#000" stroke-width="3"/><path d="M241.3362,329.2232 C241.3362,329.2232 178.4932,365.7952 228.4582,422.9722 C278.4232,480.1492 455.1052,441.0012 455.1052,441.0012 L459.7412,418.3362 C459.7412,418.3362 282.0292,332.3142 241.3362,329.2232" id="Fill-5" fill="#F0ECEC"/><path d="M241.3362,329.2232 C241.3362,329.2232 216.6112,334.3732 208.8842,362.7042 C201.1582,391.0362 218.1892,424.0292 243.1552,435.0902 C243.1552,435.0902 211.2912,364.3752 267.2642,335.2092 L241.3362,329.2232 Z" id="Fill-7" fill="#E0D3CC"/><path d="M261.5242,443.1266 C261.5242,443.1266 284.0902,397.2176 294.3922,398.2476 C304.6942,399.2776 416.2152,405.0666 427.4192,402.9446 L464.3772,417.8206 L457.8422,441.4046 C457.8422,441.4046 320.3452,473.5836 261.5242,443.1266" id="Fill-9" fill="#E7DADA"/><path d="M291.8167,356.524 C291.8167,356.524 283.5747,416.276 295.4217,416.276 C307.2697,416.276 310.3607,349.312 312.4207,372.492 C314.4817,395.671 316.0267,425.033 323.7537,416.276 C331.4797,407.519 315.5117,342.616 322.2077,360.644 C328.9037,378.673 333.0247,412.67 343.8427,412.155 C354.6597,411.64 339.7217,377.128 345.3877,376.097 C351.0537,375.067 362.3857,420.912 372.1727,415.246 C381.9607,409.58 363.9317,371.977 374.2337,385.884 C384.5357,399.793 387.6267,416.276 396.8987,414.215 C406.1707,412.155 395.8677,394.127 390.2017,385.37 C384.5357,376.613 297.4827,343.13 294.9067,347.252 C292.3317,351.373 291.8167,356.524 291.8167,356.524" id="Fill-11" fill="#F9F9F9"/><g id="Group-15" transform="translate(0.000000, 0.784000)"><mask id="lower-bodysitting-on-floorlegs-crossed-1-mask-2" fill="#ffffff"><use xlink:href="#lower-bodysitting-on-floorlegs-crossed-1-path-1" fill="#ffffff"/></mask><g id="Clip-14"/><path d="M424.7141,414.4617 C424.7141,414.4617 216.6111,354.1937 119.7711,277.4427 C22.9311,200.6917 -33.2159,126.0017 21.3851,42.0397 C75.9861,-41.9233 204.2481,21.9497 266.0611,49.2507 C327.8741,76.5517 530.5701,115.1607 627.2801,114.9157 C723.9911,114.6697 853.7981,107.4577 921.2771,87.3687 C988.7561,67.2797 1096.4131,36.8887 1129.3811,118.7907 C1162.3471,200.6917 1123.7141,281.0497 1067.0521,308.3497 C1010.3901,335.6497 835.7691,394.3727 746.1411,388.7067 L656.5121,383.0397 C656.5121,383.0397 617.8791,340.2867 628.1811,277.9587 L574.0951,317.1067 C574.0951,317.1067 543.1891,316.5917 531.8561,312.4707 C520.5241,308.3497 457.6811,459.2757 424.7141,414.4617" id="Fill-13" fill="#56ACF6" mask="url(#lower-bodysitting-on-floorlegs-crossed-1-mask-2)"/></g><path d="M479.8304,422.4576 C479.8304,422.4576 570.4894,455.9386 592.1234,469.8476 C613.7584,483.7556 658.5724,495.6026 680.2074,480.6646 C701.8414,465.7266 688.9644,391.5516 688.9644,391.5516 C688.9644,391.5516 616.3334,375.0666 608.0924,363.7346 C599.8504,352.4026 533.9164,314.8006 533.9164,314.8006 L479.8304,422.4576 Z" id="Fill-16" fill="#ecafa3"/><path d="M681.1965,397.4195 C681.1965,397.4195 685.8735,385.3695 700.2965,387.9445 C714.7195,390.5215 849.1625,375.5825 887.7955,364.7655 C926.4275,353.9475 1008.3305,430.6985 972.7875,484.7845 C937.2455,538.8715 888.8255,513.1155 845.0415,509.5105 C801.2575,505.9045 716.2645,518.2675 697.2055,512.0855 C678.1465,505.9045 659.0875,494.5715 658.5725,481.1795 C658.0575,467.7865 681.1965,397.4195 681.1965,397.4195" id="Fill-18" fill="#F0ECEC"/><path d="M877.7664,371.8189 C877.7664,371.8189 934.6694,399.7929 944.9724,438.4249 C955.2744,477.0579 950.4914,507.9839 950.4914,507.9839 C950.4914,507.9839 1004.4904,482.5399 973.7014,422.1069 C942.9114,361.6739 894.5234,356.7079 877.7664,365.6299 C861.0094,374.5519 877.7664,371.8189 877.7664,371.8189" id="Fill-20" fill="#E0D3CC"/><path d="M871.4646,370.5123 C871.4646,370.5123 848.1316,407.5193 845.0416,434.3043 C845.0416,434.3043 847.1016,439.4553 821.3466,438.9413 C795.5906,438.4253 675.5176,412.0763 675.5176,412.0763 C675.5176,412.0763 649.6886,473.9503 659.0246,489.9273 C668.3596,505.9053 845.0416,475.5133 845.0416,475.5133 C845.0416,475.5133 852.2526,471.3923 856.8886,474.9983 C861.5246,478.6043 885.4606,511.6303 918.3066,518.2963 C918.3066,518.2963 867.1906,490.9663 863.0696,454.9083 C858.9486,418.8513 871.4646,370.5123 871.4646,370.5123" id="Fill-22" fill="#EEDFD9"/><path d="M701.8416,408.0348 C701.8416,408.0348 703.3866,443.0608 696.6906,462.6358 C689.9936,482.2098 684.4326,499.2828 695.9696,497.1848 C707.5076,495.0878 719.8706,417.3058 713.1746,410.6098 C706.4776,403.9138 702.3566,401.8528 701.8416,408.0348" id="Fill-24" fill="#FFF"/><path d="M720.9006,412.1549 C720.9006,412.1549 722.4456,447.1819 715.7496,466.7569 C709.0526,486.3309 703.4916,503.4029 715.0286,501.3049 C726.5666,499.2089 738.9296,421.4269 732.2326,414.7309 C725.5366,408.0349 721.4156,405.9739 720.9006,412.1549" id="Fill-26" fill="#FFF"/><path d="M788.3796,413.3853 C788.3796,413.3853 789.9246,445.4233 783.2286,463.3263 C776.5316,481.2303 770.9706,496.8463 782.5076,494.9273 C794.0456,493.0083 806.4086,421.8653 799.7116,415.7403 C793.0156,409.6153 788.8946,407.7313 788.3796,413.3853" id="Fill-28" fill="#FFF"/><path d="M814.135,417.2809 C814.135,417.2809 815.68,447.1849 808.984,463.8959 C802.287,480.6079 796.726,495.1829 808.263,493.3929 C819.801,491.6019 832.164,425.1969 825.467,419.4799 C818.771,413.7619 814.65,412.0039 814.135,417.2809" id="Fill-30" fill="#FFF"/><path d="M832.6423,415.1246 C832.6423,415.1246 838.4183,444.5056 834.1633,461.9986 C829.9083,479.4916 826.4733,494.7096 837.6393,491.2986 C848.8053,487.8876 851.6123,420.3986 844.1723,415.6906 C836.7313,410.9826 832.4023,409.8266 832.6423,415.1246" id="Fill-32" fill="#FFF"/><path d="M744.8552,414.4049 C744.8552,414.4049 742.8102,449.4069 734.1472,468.1939 C725.4832,486.9799 718.2052,503.3939 729.8972,502.4879 C741.5882,501.5819 761.8412,425.4719 755.8652,418.1269 C749.8882,410.7799 746.0002,408.3089 744.8552,414.4049" id="Fill-34" fill="#FFF"/><path d="M754.9553,413.7564 C754.9553,413.7564 761.9163,448.1194 758.3383,468.4954 C754.7593,488.8714 751.9143,506.6014 762.9873,502.7384 C774.0593,498.8764 774.2043,420.1184 766.5503,414.5424 C758.8953,408.9664 754.5053,407.5694 754.9553,413.7564" id="Fill-36" fill="#FFF"/><path d="M677.7112,409.7262 C677.7112,409.7262 710.0832,416.7912 703.3872,455.9392 C696.6902,495.0872 656.0132,484.0552 656.0132,484.0552 C656.0132,484.0552 646.3702,419.6602 677.7112,409.7262" id="Fill-38" fill="#FFF"/><polygon id="Stroke-40" fill="#000" fill-rule="nonzero" points="222.064539 67.357022 506.395 291.638 567.949 317.564 633.126623 276.966138 856.941623 135.370138 859.080177 138.750462 635.253319 280.353906 568.306142 322.054535 504.343936 295.114337 219.587261 70.497578"/><path d="M640.0286,255.5631 C640.0286,255.5631 593.6696,268.4401 580.7916,290.5901 C567.9136,312.7401 572.0346,350.8571 610.1526,366.8261 C648.2706,382.7941 663.7236,396.1871 653.9366,370.9471 C644.1496,345.7071 626.1206,299.3461 640.0286,255.5631" id="Fill-42" fill="#AFDEFF"/><path d="M505.0706,284.9234 C505.0706,284.9234 500.4346,336.4344 472.1036,376.6124 C443.7736,416.7914 418.5326,420.9114 427.8046,430.6984 C437.0766,440.4854 451.4996,445.1214 460.7716,457.4854 C470.0436,469.8474 469.5286,469.3314 491.1626,443.5764 C512.7976,417.8204 560.1876,360.6444 561.2176,309.6494 C561.2176,309.6494 509.1916,267.9254 505.0706,284.9234" id="Fill-44" fill="#AFDEFF"/></g></g></g><g id="Expression" transform="translate(1633.000000, 1412.000000) scale(1 1)" fill="#000"><g id="Expression/Happy" stroke="none" stroke-width="1" fill="none" fill-rule="evenodd"><g id="Group-124" transform="translate(25.000000, 52.000000)" fill="#000" fill-rule="nonzero"><path d="M98.9388073,0.515726772 L102.747593,1.73767323 L102.375135,2.93095324 C102.075892,3.9043293 101.742122,5.01790967 101.382468,6.25291663 C100.354215,9.78380887 99.3257634,13.5761133 98.3662837,17.478955 C97.2996742,21.8175645 96.3854385,26.0250163 95.6702376,29.9976992 L95.4631649,31.1740325 C93.7257688,41.2776329 93.4803733,48.9926374 95.0328764,53.1417647 L95.1244408,53.3771728 C104.002358,75.340079 91.9464166,86.4779502 66.6424816,78.6786942 L65.8716485,78.4365483 L67.0907515,74.6268517 C89.8846425,81.9208968 99.0260452,73.7026714 91.4159925,54.8763096 C89.3210345,49.6942966 89.6433125,40.8993486 91.7335247,29.288974 C92.4647551,25.2272527 93.3964651,20.9393815 94.4819426,16.5240234 C95.3476055,13.0027971 96.2678852,9.57278889 97.1943734,6.33814281 L97.5420029,5.13451153 C97.7507758,4.41761123 97.9510908,3.74056192 98.1413397,3.10683734 L98.6297394,1.50244969 L98.9388073,0.515726772 Z" id="Stroke-114"/><path d="M0.1850015,153.534088 L2.1419985,150.045512 L2.85620174,150.434727 L3.51128674,150.782909 C4.50308988,151.305335 5.6321651,151.880908 6.88714027,152.498006 L7.43266178,152.764985 C11.6537624,154.821142 16.3218862,156.878362 21.3004212,158.797989 C32.7483158,163.212076 44.0600582,166.224884 54.584272,167.202241 C59.3535856,167.645156 63.8735301,167.656119 68.1063644,167.201856 L68.9490919,167.10479 L69.4379081,171.07481 C64.6629697,171.662733 59.5745075,171.682884 54.2143935,171.185103 C43.2765951,170.169337 31.6251616,167.066055 19.8613669,162.530163 C14.7706849,160.567294 9.99959664,158.464698 5.68097489,156.361037 L4.04785364,155.55429 C3.35348222,155.206284 2.70158001,154.872883 2.09423579,154.556252 L0.962732129,153.958187 L0.1850015,153.534088 Z" id="Stroke-122"/></g><g id="Group-16" transform="translate(27.000000, 30.000000)" fill="#000"><path d="M70.0371,131.9951 C51.1661,131.9951 36.9381,123.3511 36.2701,122.9381 C34.8611,122.0681 34.4251,120.2191 35.2961,118.8091 C36.1651,117.4011 38.0141,116.9631 39.4241,117.8341 C39.7061,118.0061 56.4191,128.0481 76.5681,125.6031 C78.2011,125.4051 79.7071,126.5751 79.9081,128.2201 C80.1081,129.8641 78.9361,131.3601 77.2911,131.5591 C74.8141,131.8611 72.3881,131.9951 70.0371,131.9951" id="Fill-3" transform="translate(57.388937, 124.690582) rotate(15.000000) translate(-57.388937, -124.690582)"/><path d="M78.8252,103.1664 C74.7822,103.1664 69.7382,102.3754 63.4432,100.3614 L64.6612,96.5514 C76.3852,100.3024 85.0452,99.9964 89.0462,95.6874 C92.4492,92.0204 92.4282,85.3134 88.9872,76.8014 C86.6522,71.0264 87.2292,60.0734 90.7022,44.2454 C93.2432,32.6624 96.4772,22.5414 96.5102,22.4404 L100.3182,23.6624 C96.8112,34.5954 88.6062,65.1874 92.6952,75.3024 C97.8932,88.1604 95.1742,94.9644 91.9772,98.4084 C89.6972,100.8664 85.7182,103.1664 78.8252,103.1664" id="Fill-5"/><g id="Group-9" transform="translate(0.000000, 0.956000)"><path d="M62.1387,19.4316 C61.5377,19.4316 60.9257,19.3316 60.3267,19.1226 C54.4907,17.0866 37.6337,11.6746 29.8217,11.0966 C22.4657,10.5516 11.2427,14.1856 7.5387,15.6326 C4.7097,16.7366 1.5207,15.3416 0.4147,12.5146 C-0.6923,9.6866 0.7007,6.4986 3.5277,5.3896 C4.1637,5.1406 19.2597,-0.7164 30.6337,0.1266 C41.4887,0.9306 63.0387,8.4186 63.9507,8.7376 C66.8187,9.7386 68.3317,12.8746 67.3317,15.7426 C66.5397,18.0106 64.4127,19.4316 62.1387,19.4316" id="Fill-7"/></g><path d="M154.6772,39.1645 C153.5752,39.1645 152.4632,38.8265 151.5062,38.1245 C148.4472,35.8845 139.0022,29.8175 132.1372,28.6695 C124.8122,27.4455 107.9602,28.8295 102.0842,29.4645 C99.1372,29.7795 96.4882,27.6525 96.1692,24.7055 C95.8492,21.7575 97.9802,19.1085 100.9272,18.7895 C101.8492,18.6895 123.6282,16.3615 133.9072,18.0795 C144.7152,19.8855 157.3282,29.0775 157.8602,29.4685 C160.2492,31.2235 160.7642,34.5835 159.0092,36.9735 C157.9572,38.4055 156.3282,39.1645 154.6772,39.1645" id="Fill-10"/><path d="M51.6362,49.1289 C50.9112,49.1289 50.1852,48.8679 49.6092,48.3389 C49.5712,48.3049 44.6242,43.9129 37.4832,44.1789 C30.0942,44.4519 25.1892,48.0669 25.1402,48.1029 C23.8182,49.0929 21.9392,48.8329 20.9442,47.5169 C19.9472,46.1999 20.1962,44.3309 21.5082,43.3279 C21.7642,43.1319 27.8862,38.5299 37.2612,38.1829 C46.9102,37.8359 53.3942,43.6699 53.6652,43.9189 C54.8862,45.0389 54.9682,46.9369 53.8472,48.1569 C53.2562,48.8019 52.4472,49.1289 51.6362,49.1289" id="Fill-12"/><path d="M135.7539,58.2724 C135.0289,58.2724 134.3029,58.0114 133.7269,57.4824 C133.6889,57.4484 128.7419,53.0504 121.5999,53.3224 C114.2309,53.5944 109.3169,57.2014 109.2699,57.2374 C107.9529,58.2444 106.0699,57.9924 105.0639,56.6764 C104.0579,55.3604 104.3089,53.4774 105.6249,52.4714 C105.8809,52.2754 112.0039,47.6724 121.3789,47.3264 C131.0239,46.9814 137.5119,52.8134 137.7829,53.0624 C139.0039,54.1824 139.0859,56.0804 137.9649,57.3004 C137.3739,57.9454 136.5649,58.2724 135.7539,58.2724" id="Fill-14"/></g></g></g><g id="Hairstyle" transform="translate(1142.000000, 1085.000000) scale(1 1)" fill="#000"><defs><polygon id="hairstyleshort-hair-path-1" points="0 0.00068458796 256.477 0.00068458796 256.477 187.855 0 187.855"/></defs><g id="Hairstyle/Short Hair" stroke="none" stroke-width="1" fill="none" fill-rule="evenodd"><g id="Group-3" transform="translate(452.000000, 197.000000)"><mask id="hairstyleshort-hair-mask-2" fill="#ffffff"><use xlink:href="#hairstyleshort-hair-path-1" fill="#ffffff"/></mask><g id="Clip-2"/><path d="M9.0688,167.6793 C9.0688,167.6793 12.1858,169.5373 11.0758,187.8553 C11.0758,187.8553 19.4018,179.5293 21.6218,169.5373 C23.8418,159.5463 38.8288,130.6823 51.5958,122.9103 C64.3628,115.1403 84.3458,115.6953 96.0018,97.9333 L107.6588,80.1703 C107.6588,80.1703 182.0388,85.1653 214.2328,109.0343 C214.2328,109.0343 229.2198,115.6953 225.8898,180.6393 C225.8898,180.6393 231.9958,145.6693 233.1058,127.9073 C234.2158,110.1443 241.9868,138.4533 238.6568,153.9953 C238.6568,153.9953 257.6618,137.7753 256.4188,102.9283 C254.7288,55.5333 231.6968,41.8383 216.4538,30.7693 C198.4878,17.7223 145.4818,-11.0527 112.1778,4.4893 C78.8728,20.0313 80.4598,23.5523 64.9178,29.6583 C49.3758,35.7643 29.9478,32.9893 13.2958,45.2003 C-3.3562,57.4123 0.3518,161.1243 0.3518,161.1243 C0.3518,161.1243 6.9378,163.7943 9.0688,167.6793" id="Fill-1" fill="#0f0f0f" mask="url(#hairstyleshort-hair-mask-2)"/></g></g></g><g id="Accessories" transform="translate(1586.000000, 1445.000000) scale(1 1)"><g id="Accessories/Red Glasses and Earring" stroke="none" stroke-width="1" fill="none" fill-rule="evenodd"><g id="Group-136" transform="translate(17.000000, -4.000000)" fill="#E93737" fill-rule="nonzero"><path d="M89.2331,0.4815 C68.1379939,0.4815 51.0361,17.5830433 51.0361,38.6775 C51.0361,59.7726319 68.1376692,76.8735 89.2331,76.8735 C110.328381,76.8735 127.4291,59.7727814 127.4291,38.6775 C127.4291,17.5828939 110.328057,0.4815 89.2331,0.4815 Z M89.2331,9.4815 C105.357453,9.4815 118.4291,22.5534154 118.4291,38.6775 C118.4291,54.8022186 105.357819,67.8735 89.2331,67.8735 C73.1081493,67.8735 60.0361,54.8019866 60.0361,38.6775 C60.0361,22.5536474 73.1085154,9.4815 89.2331,9.4815 Z" id="Stroke-128"/><path d="M183.1536,9.5889 C162.058169,9.5889 144.9566,26.6897681 144.9566,47.7849 C144.9566,68.8800319 162.058169,85.9809 183.1536,85.9809 C204.248881,85.9809 221.3496,68.8801814 221.3496,47.7849 C221.3496,26.6896186 204.248881,9.5889 183.1536,9.5889 Z M183.1536,18.5889 C199.278319,18.5889 212.3496,31.6601814 212.3496,47.7849 C212.3496,63.9096186 199.278319,76.9809 183.1536,76.9809 C167.028649,76.9809 153.9566,63.9093866 153.9566,47.7849 C153.9566,31.6604134 167.028649,18.5889 183.1536,18.5889 Z" id="Stroke-130"/><path d="M0.358154891,11.309942 C1.25401786,9.07028454 3.74744822,7.94709164 6.00319591,8.726899 L6.20755804,8.80305489 L56.207558,28.8030549 C58.5150839,29.7260652 59.6374554,32.3449322 58.7144451,34.652458 C57.8185821,36.8921155 55.3251518,38.0153084 53.0694041,37.235501 L52.865042,37.1593451 L2.86504196,17.1593451 C0.55751613,16.2363348 -0.564855439,13.6174678 0.358154891,11.309942 Z" id="Stroke-132"/><path d="M118.843511,40.5654718 C119.110544,38.1660118 121.218034,36.4181733 123.60255,36.5722482 L123.813628,36.5908106 L150.033628,39.5088106 C152.503661,39.7836983 154.283177,42.0088957 154.008289,44.4789282 C153.741256,46.8783882 151.633766,48.6262267 149.24925,48.4721518 L149.038172,48.4535894 L122.818172,45.5355894 C120.348139,45.2607017 118.568623,43.0355043 118.843511,40.5654718 Z" id="Stroke-134"/></g><g id="Group-5" transform="translate(1.000000, 55.000000)" fill="#FFF"><path d="M21.5,11 C21.5,16.799 16.8,21.5 11,21.5 C5.201,21.5 0.5,16.799 0.5,11 C0.5,5.2 5.201,0.5 11,0.5 C16.8,0.5 21.5,5.2 21.5,11" id="Fill-1"/></g></g></g><g id="Facial Hair" transform="translate(1596.000000, 1446.000000) scale(1 1)"><g id="Facial Hair/None" stroke="none" stroke-width="1" fill="none" fill-rule="evenodd" fill-opacity="0"/></g></g></svg>