<svg viewBox="555.4069767441861 575.4500000000003 1456.25 2166.3999999999996" xmlns="http://www.w3.org/2000/svg" xmlns:xlink="http://www.w3.org/1999/xlink" overflow="visible" width="1456.25px" height="2166.3999999999996px"><defs><polygon id="mastercharactersitting-on-chair-path-1" points="0 280.06 382.454938 280.06 382.454938 519.503 0 519.503"/></defs><g id="Master/Character/Sitting On Chair" stroke="none" stroke-width="1" fill="none" fill-rule="evenodd"><g id="Lower Body/Sitting On Chair" transform="translate(876.000000, 1607.000000) scale(1 1)"><defs><polygon id="lower-bodysitting-on-chair2-path-1" points="0 280.06 382.454938 280.06 382.454938 519.503 0 519.503"/></defs><g id="Lower Body/Sitting On Chair/2" stroke="none" stroke-width="1" fill="none" fill-rule="evenodd"><g id="Group-68"><g id="Group-3" transform="translate(895.533816, 840.477907) rotate(-4.000000) translate(-895.533816, -840.477907) translate(704.033816, 580.477907)"><polygon id="Fill-2" fill="#56ACF6" points="90.9983376 401.8251 156.753338 473.6121 264.736338 472.4061 258.101338 443.4491 129.606338 390.9661"/><path d="M76.0960053,0.9638 C74.7380053,10.5148 88.0788376,204.960923 88.0788376,204.960923 C88.0788376,204.960923 121.781585,210.464215 189.187079,221.4708 L229.667856,0.9638 L76.0960053,0.9638 Z" id="Fill-34" fill="#ecafa3"/><path d="M66.2981376,309.6757 C66.7611376,306.4187 85.3031376,199.4197 85.3031376,199.4197 C85.3031376,199.4197 82.6941376,194.3977 84.4551376,182.0237 C86.2151376,169.6497 95.0471376,158.9447 147.152138,171.0077 C199.258138,183.0707 201.588138,190.0457 200.847138,195.2567 C200.106138,200.4667 192.485138,212.0077 191.280138,220.4747 C190.075138,228.9417 182.962138,311.6517 182.962138,311.6517 L66.2981376,309.6757 Z" id="Fill-36" fill="#E4F9FF"/><path d="M65.3538376,305.3369 L49.7058376,390.8379 L120.300838,382.5059 L184.204838,414.0519 L281.627838,457.5109 L365.732838,454.6729 L363.718838,432.9509 C363.718838,432.9509 291.447838,388.4759 274.290838,376.3389 C257.132838,364.2009 251.280838,344.7449 251.280838,344.7449 L225.951838,302.0589 C225.951838,302.0589 198.906838,256.5119 175.147838,251.0879 C151.389838,245.6639 130.555838,248.4249 134.454838,258.3819 C138.352838,268.3399 148.495838,286.1359 148.495838,286.1359 L105.213838,274.2559 L78.2138376,303.1209 L71.1208376,309.8799 L73.4148376,315.1509" id="Fill-38" fill="#F4F0F1"/><path d="M71.2034376,318.3789 C71.2034376,318.3789 69.7594376,326.0259 93.7554376,335.5079 C117.751438,344.9899 143.249438,358.9689 147.939438,346.0709 C152.630438,333.1739 147.424438,319.5819 147.424438,319.5819 L168.776438,337.6109 C168.776438,337.6109 177.884438,356.3989 164.799438,373.0999 C151.715438,389.8009 121.926438,388.4199 121.926438,388.4199 L110.123438,376.0319 C110.123438,376.0319 72.2724376,351.0149 64.9164376,334.9759 C57.5594376,318.9369 71.2034376,318.3789 71.2034376,318.3789" id="Fill-40" fill="#F9C818"/><mask id="lower-bodysitting-on-chair2-mask-2" fill="#ffffff"><use xlink:href="#lower-bodysitting-on-chair2-path-1" fill="#ffffff"/></mask><g id="Clip-43"/><path d="M64.9085376,286.331 C64.9085376,286.331 31.3285376,352.55 33.9245376,351.751 C36.5205376,350.952 55.0565376,318.708 54.8405376,331.528 C54.6225376,344.35 45.0835376,360.107 45.8275376,374.428 C45.8275376,374.428 56.5795376,409.639 64.4535376,410.759 C72.3285376,411.879 110.743538,404.674 110.743538,404.674 C110.743538,404.674 129.508538,383.549 163.529538,409.4 C197.551538,435.252 241.914538,462.266 241.914538,462.266 C241.914538,462.266 235.982538,466.574 235.461538,470.931 C234.940538,475.286 237.320538,481.436 237.320538,481.436 L99.2415376,451.568 L27.7065376,395.481 L18.3445376,395.813 C18.3445376,395.813 9.35653757,400.523 7.50253757,415.896 C5.64853757,431.269 6.07053757,435.321 3.41853757,439.935 C0.765537573,444.548 -5.84346243,453.588 11.9545376,459.446 C29.7515376,465.305 163.510538,507.286 223.092538,516.427 C282.674538,525.566 345.363538,512.858 363.147538,497.756 C380.932538,482.653 384.418538,469.841 381.569538,457.126 C378.720538,444.411 372.410538,428.883 355.019538,430.531 C337.628538,432.181 327.611538,434.347 300.046538,423.377 C272.479538,412.407 261.270538,412.675 261.814538,419.137 C262.357538,425.598 282.696538,433.145 282.696538,433.145 C282.696538,433.145 310.131538,441.304 309.741538,444.041 C309.351538,446.778 308.217538,449.143 283.076538,445.435 C257.935538,441.726 228.038538,434.084 189.995538,407.129 C151.951538,380.174 140.828538,369.877 114.528538,370.977 C88.2285376,372.078 64.0025376,382.431 58.7035376,363.521 C53.4045376,344.612 73.1145376,321.413 73.4145376,315.151 C73.7135376,308.89 65.3535376,305.337 65.3535376,305.337 L65.4135376,280.06" id="Fill-42" fill="#15023F" mask="url(#lower-bodysitting-on-chair2-mask-2)"/><path d="M69.5901376,270.9257 C69.5901376,270.9257 68.5511376,272.1127 65.4131376,280.0607 C62.2761376,288.0077 59.6341376,312.9947 68.4221376,312.7857 C77.2111376,312.5757 85.2481376,295.8367 93.6731376,286.6347 C102.099138,277.4327 112.061138,275.3827 120.086138,280.5387 C128.111138,285.6947 160.487138,285.9557 160.487138,285.9557 C160.487138,285.9557 152.876138,270.6797 124.261138,268.4007 C124.261138,268.4007 104.491138,260.2807 91.3821376,277.8477 C78.2731376,295.4127 69.7971376,313.1857 70.0111376,297.6547 C70.1951376,284.2817 74.9591376,276.4167 74.3971376,271.6527 C73.8341376,266.8867 69.5901376,270.9257 69.5901376,270.9257" id="Fill-45" fill="#451989" mask="url(#lower-bodysitting-on-chair2-mask-2)"/><path d="M282.480838,380.5556 C282.480838,380.5556 267.059838,381.7456 223.004838,374.4696 C178.952838,367.1836 190.188838,347.7626 172.480838,341.1726 C154.770838,334.5936 152.876838,333.6376 144.174838,316.1276 C135.484838,298.6186 109.480838,312.2126 97.8038376,308.5216 C86.1198376,304.8196 123.980838,274.6106 123.980838,274.6106 C123.980838,274.6106 143.584838,270.7836 160.486838,285.9536 C165.242838,290.2266 174.417838,304.9756 177.261838,308.4806 C180.096838,311.9856 198.271838,320.0546 213.401838,342.0036 C228.529838,363.9626 252.276838,359.7046 256.826838,361.3016 C261.365838,362.9076 225.290838,304.5756 225.290838,304.5756 L225.751838,299.0556 C225.751838,299.0556 248.139838,337.5116 259.207838,354.7216 C270.283838,371.9326 280.058838,376.7066 281.812838,377.7946 C283.555838,378.8906 282.480838,380.5556 282.480838,380.5556" id="Fill-47" fill="#E263AB" mask="url(#lower-bodysitting-on-chair2-mask-2)"/><path d="M47.9388376,319.0849 C47.9388376,319.0849 14.8268376,382.1459 15.3848376,397.1789 C15.9428376,412.2129 48.6158376,404.8479 60.0978376,434.4289 C71.5808376,464.0099 90.8508376,477.9679 175.142838,498.8099 C259.433838,519.6499 333.662838,492.6929 334.367838,487.7349 C335.072838,482.7769 335.184838,473.0979 335.184838,473.0979 C335.184838,473.0979 210.898838,484.5049 162.362838,446.4079 C113.826838,408.3119 112.816838,397.6299 93.3428376,401.1829 C73.8688376,404.7359 63.0638376,397.7199 49.7138376,378.9599 C49.7138376,378.9599 48.8828376,369.9889 55.8918376,347.3809 C62.9018376,324.7719 60.4598376,291.6389 47.9388376,319.0849" id="Fill-49" fill="#FFF" mask="url(#lower-bodysitting-on-chair2-mask-2)"/><path d="M125.258138,271.3183 C125.258138,271.3183 115.626138,259.2483 133.734138,248.2053 C151.841138,237.1623 182.016138,248.4253 190.580138,258.8843 C190.580138,258.8843 173.504138,248.9983 151.350138,249.7383 C129.196138,250.4783 133.921138,257.1483 142.943138,273.5093 L123.237138,269.5723" id="Fill-51" fill="#451989" mask="url(#lower-bodysitting-on-chair2-mask-2)"/><path d="M153.778638,286.0683 C155.877638,289.9953 153.476638,295.3693 148.418638,298.0733 C143.359638,300.7783 137.556638,299.7873 135.458638,295.8613 C133.359638,291.9353 135.759638,286.5603 140.818638,283.8563 C145.877638,281.1523 151.679638,282.1423 153.778638,286.0683" id="Fill-53" fill="#1F003C" mask="url(#lower-bodysitting-on-chair2-mask-2)"/><path d="M138.640938,292.0087 C138.640938,292.0087 140.350938,284.0397 156.223938,279.8147 C172.095938,275.5887 201.986938,269.0347 216.679938,282.2187 C231.372938,295.4027 229.600938,300.7687 229.600938,300.7687 C229.600938,300.7687 218.723938,293.1707 210.148938,289.6457 C201.573938,286.1207 189.750938,284.1517 177.729938,285.6117 C165.707938,287.0707 153.607938,290.1037 149.674938,291.4167 C145.742938,292.7307 141.651938,300.2167 138.640938,292.0087" id="Fill-55" fill="#E8D9F3" mask="url(#lower-bodysitting-on-chair2-mask-2)"/><path d="M173.357738,304.8457 C175.456738,308.7727 173.056738,314.1467 167.997738,316.8507 C162.938738,319.5557 157.135738,318.5647 155.038738,314.6387 C152.939738,310.7127 155.338738,305.3377 160.397738,302.6337 C165.457738,299.9297 171.258738,300.9197 173.357738,304.8457" id="Fill-57" fill="#1F003C" mask="url(#lower-bodysitting-on-chair2-mask-2)"/><path d="M158.221038,310.7861 C158.221038,310.7861 159.908038,302.8141 175.197038,298.5061 C190.486038,294.1971 219.269038,287.4861 233.328038,300.5791 C247.388038,313.6731 245.655038,319.0451 245.655038,319.0451 C245.655038,319.0451 235.235038,311.5121 227.006038,308.0361 C218.779038,304.5601 207.419038,302.6571 195.850038,304.1811 C184.280038,305.7051 172.625038,308.8011 168.835038,310.1351 C165.046038,311.4691 161.072038,318.9721 158.221038,310.7861" id="Fill-59" fill="#E8D9F3" mask="url(#lower-bodysitting-on-chair2-mask-2)"/><path d="M195.223938,322.2109 C197.322938,326.1369 194.922938,331.5109 189.863938,334.2159 C184.804938,336.9199 179.002938,335.9289 176.904938,332.0029 C174.805938,328.0769 177.204938,322.7019 182.263938,319.9979 C187.323938,317.2939 193.124938,318.2839 195.223938,322.2109" id="Fill-61" fill="#1F003C" mask="url(#lower-bodysitting-on-chair2-mask-2)"/><path d="M180.039438,328.4824 C180.039438,328.4824 181.499438,321.3134 193.727438,317.2284 C205.954438,313.1444 236.445438,308.7414 247.441438,320.2704 C258.436438,331.7994 250.674438,338.6684 250.674438,338.6684 C250.674438,338.6684 241.307438,328.0074 234.810438,325.0134 C228.314438,322.0184 219.304438,320.4784 210.076438,322.0124 C200.849438,323.5474 191.529438,326.4934 188.495438,327.7434 C185.460438,328.9944 182.188438,335.7764 180.039438,328.4824" id="Fill-63" fill="#E8D9F3" mask="url(#lower-bodysitting-on-chair2-mask-2)"/></g><g id="Group-67" transform="translate(0.000000, 0.060000)"><g id="Group-44" transform="translate(651.000000, 860.000000)"/><path d="M3.1806,0.942 C3.1806,0.942 -3,188.499 30.4226,177.385 C30.4226,177.385 212.4216,195.445 256.8796,202.391 C279.246794,205.886094 322.024268,232.656066 455.898754,254.990308 C589.773239,277.324549 717.4166,300.348138 717.4166,309.322 C717.4166,327.384 746.5776,459.14 753.5236,620.3 C753.5236,620.3 795.2036,670.314 920.2406,625.857 C920.2406,625.857 929.3036,310.758 866.7846,188.499 C747.405502,30.118 369.004392,0.942 369.004392,0.942 L3.1806,0.942 Z" id="Fill-65" fill="#204EB2"/><g id="Group-2" transform="translate(320.000000, 556.940000)"><path d="M43.3374466,13.506658 C43.3374466,23.152658 55.2845449,269.8996 55.2845449,269.8996 L152.715994,278.852034 L206.575491,-2.84217094e-14 L43.3374466,13.506658 Z" id="Fill-4" fill="#ecafa3"/><g id="Group" transform="translate(0.000000, 210.544663)"><polygon id="Fill-1" fill="#56ACF6" points="74.7025449 113.497237 140.457545 185.285237 248.440545 184.079237 241.805545 155.122237 113.310545 102.639237"/><polygon id="Fill-3" fill="#56ACF6" points="74.9691449 226.772637 140.724145 298.560637 248.707145 297.354637 242.072145 268.397637 113.577145 215.914637"/><path d="M46.1420449,149.748137 C46.1420449,146.459137 49.4310449,37.9151369 49.4310449,37.9151369 C49.4310449,37.9151369 46.1420449,33.3101369 46.1420449,20.8111369 C46.1420449,8.31113686 53.3780449,-3.52886314 106.663045,1.07513686 C159.949045,5.68113686 163.238045,12.2591369 163.238045,17.5211369 C163.238045,22.7841369 157.318045,35.2831369 157.318045,43.8351369 C157.318045,52.3881369 161.922045,135.275137 161.922045,135.275137 L46.1420449,149.748137 Z" id="Fill-6" fill="#E4F9FF"/><path d="M44.5961449,145.585137 L41.1451449,232.438137 L109.864145,214.247137 L177.572145,236.481137 L280.145145,265.787137 L363.012145,251.134137 L357.959145,229.911137 C357.959145,229.911137 280.145145,196.058137 261.450145,186.457137 C242.754145,176.856137 234.220145,158.418137 234.220145,158.418137 L203.132145,119.725137 C203.132145,119.725137 169.943145,78.4391369 145.658145,76.4161369 C121.372145,74.3921369 101.134145,80.0591369 106.396145,89.3681369 C111.658145,98.6771369 124.205145,114.867137 124.205145,114.867137 L79.6831449,109.200137 L57.0161449,141.581137 L50.9451449,149.272137 L53.9581449,154.167137" id="Fill-8" fill="#F4F0F1"/><path d="M52.2250449,157.673937 C52.2250449,157.673937 51.8710449,165.447937 76.9630449,171.455937 C102.056045,177.464937 129.269045,187.712937 132.096045,174.282937 C134.923045,160.854937 127.855045,148.130937 127.855045,148.130937 L151.534045,162.974937 C151.534045,162.974937 163.196045,180.291937 152.594045,198.668937 C141.992045,217.046937 112.305045,219.873937 112.305045,219.873937 L98.8750449,209.271937 C98.8750449,209.271937 57.8790449,189.833937 48.3370449,174.989937 C38.7950449,160.147937 52.2250449,157.673937 52.2250449,157.673937" id="Fill-10" fill="#F9C818"/><path d="M41.4789449,126.831237 C41.4789449,126.831237 17.5589449,197.119237 20.0169449,195.963237 C22.4749449,194.807237 36.2859449,160.272237 37.8749449,172.996237 C39.4659449,185.720237 32.2419449,202.664237 34.9949449,216.737237 C34.9949449,216.737237 50.5969449,250.083237 58.5509449,250.083237 C66.5049449,250.083237 103.522945,237.540237 103.522945,237.540237 C103.522945,237.540237 119.124945,213.983237 156.448945,234.787237 C193.771945,255.590237 241.496945,276.087237 241.496945,276.087237 C241.496945,276.087237 236.230945,281.187237 236.328945,285.573237 C236.425945,289.960237 239.647945,295.714237 239.647945,295.714237 L98.7389449,285.587237 L20.0179449,240.134237 L10.7959449,241.780237 C10.7959449,241.780237 2.56194485,247.709237 2.89094485,263.189237 C3.21994485,278.670237 4.20794485,282.623237 2.23194485,287.563237 C0.25594485,292.504237 -5.01405515,302.386237 13.4309449,305.679237 C31.8749449,308.973237 170.212945,331.699237 230.488945,332.358237 C290.763945,333.018237 351.039945,311.607237 366.519945,294.151237 C381.999945,276.694237 383.647945,263.519237 379.036945,251.332237 C374.424945,239.145237 365.991945,224.660237 349.005945,228.741237 C332.019945,232.823237 322.408945,236.378237 293.572945,229.399237 C264.736945,222.421237 253.675945,224.265237 255.123945,230.585237 C256.572945,236.905237 277.771945,241.514237 277.771945,241.514237 C277.771945,241.514237 306.081945,245.727237 306.081945,248.492237 C306.081945,251.257237 305.290945,253.759237 279.877945,253.627237 C254.465945,253.495237 223.790945,250.141237 182.330945,228.811237 C140.869945,207.481237 128.407945,198.854237 102.524945,203.647237 C76.6419449,208.440237 54.1149449,222.101237 46.2069449,204.127237 C38.2969449,186.152237 54.5429449,160.409237 53.9579449,154.167237 C53.3739449,147.926237 44.5959449,145.585237 44.5959449,145.585237 L41.0959449,120.553237" id="Fill-12" fill="#15023F"/><path d="M43.9447449,110.920037 C43.9447449,110.920037 43.0837449,112.243037 41.0957449,120.553037 C39.1087449,128.862037 40.0117449,153.973037 48.6837449,152.527037 C57.3547449,151.083037 62.9557449,133.379037 70.0007449,123.082037 C77.0457449,112.785037 86.6207449,109.353037 95.2917449,113.327037 C103.962745,117.301037 136.052745,113.001037 136.052745,113.001037 C136.052745,113.001037 126.366745,98.9480369 97.7157449,100.722037 C97.7157449,100.722037 76.9997449,95.4680369 66.4947449,114.704037 C55.9887449,133.941037 50.1007449,152.731037 48.1257449,137.325037 C46.4247449,124.059037 50.0337449,115.602037 48.8057449,110.963037 C47.5787449,106.324037 43.9447449,110.920037 43.9447449,110.920037" id="Fill-14" fill="#451989"/><path d="M270.152745,189.478637 C270.152745,189.478637 255.051745,192.829637 210.412745,191.829637 C165.772745,190.819637 174.162745,170.008637 155.702745,165.978637 C137.242745,161.958637 135.232745,161.279637 124.152745,145.168637 C113.082745,129.058637 89.2527449,146.178637 77.1727449,144.168637 C65.0827449,142.148637 98.3127449,106.909637 98.3127449,106.909637 C98.3127449,106.909637 117.182745,100.359637 136.051745,112.999637 C141.362745,116.558637 152.522745,129.869637 155.832745,132.938637 C159.132745,136.008637 178.261745,141.438637 196.332745,161.039637 C214.402745,180.648637 237.312745,173.088637 242.042745,174.029637 C246.761745,174.978637 202.832745,122.308637 202.832745,122.308637 L202.511745,116.779637 C202.511745,116.779637 230.091745,151.699637 243.472745,167.178637 C256.862745,182.659637 267.212745,186.008637 269.102745,186.838637 C270.982745,187.678637 270.152745,189.478637 270.152745,189.478637" id="Fill-16" fill="#E263AB"/><path d="M29.2904449,161.648537 C29.2904449,161.648537 5.38944485,228.743537 8.05944485,243.548537 C10.7284449,258.354537 42.0384449,246.461537 57.5714449,274.130537 C73.1054449,301.799537 94.1494449,312.905537 180.536445,321.669537 C266.922445,330.432537 336.615445,293.291537 336.615445,288.283537 C336.615445,283.275537 335.363445,273.676537 335.363445,273.676537 C335.363445,273.676537 213.922445,302.472537 160.504445,271.589537 C107.087445,240.708537 104.583445,230.275537 85.8044449,236.535537 C67.0234449,242.794537 55.3394449,237.370537 39.4804449,220.676537 C39.4804449,220.676537 37.3944449,211.913537 41.1494449,188.543537 C44.9054449,165.172537 37.8224449,132.712537 29.2904449,161.648537" id="Fill-18" fill="#FFF"/><path d="M99.1137449,103.470837 C99.1137449,103.470837 87.8777449,92.8768369 104.249745,79.3938369 C120.621745,65.9108369 152.081745,72.8128369 162.033745,81.9618369 C162.033745,81.9618369 143.734745,74.5778369 121.905745,78.4308369 C100.076745,82.2838369 105.694745,88.2218369 116.929745,103.149837 L96.8667449,102.025837" id="Fill-20" fill="#451989"/><path d="M129.426245,114.057737 C132.057245,117.648737 130.438245,123.307737 125.810245,126.697737 C121.183245,130.086737 115.299245,129.923737 112.668245,126.331737 C110.037245,122.741737 111.656245,117.081737 116.284245,113.692737 C120.912245,110.302737 126.796245,110.465737 129.426245,114.057737" id="Fill-22" fill="#1F003C"/><path d="M115.276745,122.070437 C115.276745,122.070437 115.846745,113.939437 130.965745,107.520437 C146.086745,101.102437 174.755745,90.4044369 191.159745,101.387437 C207.561745,112.371437 206.563745,117.933437 206.563745,117.933437 C206.563745,117.933437 194.724745,111.942437 185.738745,109.660437 C176.753745,107.378437 164.771745,107.092437 153.075745,110.231437 C141.379745,113.369437 129.825745,118.076437 126.116745,119.930437 C122.408745,121.784437 119.413745,129.772437 115.276745,122.070437" id="Fill-24" fill="#E8D9F3"/><path d="M151.455545,129.890737 C154.085545,133.481737 152.466545,139.140737 147.839545,142.530737 C143.211545,145.919737 137.327545,145.756737 134.696545,142.164737 C132.066545,138.574737 133.684545,132.914737 138.312545,129.525737 C142.940545,126.135737 148.824545,126.298737 151.455545,129.890737" id="Fill-26" fill="#1F003C"/><path d="M137.305145,137.903437 C137.305145,137.903437 137.854145,129.772437 152.383145,123.354437 C166.912145,116.935437 194.464145,106.237437 210.227145,117.220437 C225.991145,128.204437 225.031145,133.766437 225.031145,133.766437 C225.031145,133.766437 213.654145,127.775437 205.019145,125.493437 C196.383145,123.211437 184.869145,122.925437 173.629145,126.064437 C162.389145,129.202437 151.286145,133.909437 147.723145,135.763437 C144.159145,137.617437 141.281145,145.605437 137.305145,137.903437" id="Fill-28" fill="#E8D9F3"/><path d="M175.549245,144.002137 C178.179245,147.594137 176.560245,153.253137 171.933245,156.643137 C167.305245,160.032137 161.421245,159.868137 158.790245,156.277137 C156.160245,152.687137 157.778245,147.027137 162.406245,143.638137 C167.034245,140.248137 172.918245,140.411137 175.549245,144.002137" id="Fill-30" fill="#1F003C"/><path d="M161.398845,152.349737 C161.398845,152.349737 161.834845,145.046737 173.364845,139.281737 C184.894845,133.515737 214.462845,124.862737 226.972845,134.728737 C239.481845,144.593737 232.763845,152.487737 232.763845,152.487737 C232.763845,152.487737 221.988845,143.252737 215.135845,141.203737 C208.282845,139.153737 199.144845,138.896737 190.224845,141.715737 C181.305845,144.534737 172.494845,148.761737 169.666845,150.427737 C166.837845,152.093737 164.553845,159.268737 161.398845,152.349737" id="Fill-32" fill="#E8D9F3"/></g></g><path d="M99.0982643,254.988308 C232.97275,277.322549 360.616111,300.346138 360.616111,309.32 C360.616111,327.382 349.777111,459.138 356.723111,620.298 C356.723111,620.298 398.403111,670.312 523.440111,625.855 C523.440111,625.855 572.503111,310.756 509.984111,188.497 C390.605013,30.116 12.2039025,0.94 12.2039025,0.94 C-19.1161799,155.416044 9.84860739,240.098814 99.0982643,254.988308 Z" id="Fill-65-Copy" fill="#204EB2"/></g></g><path d="M403.874884,92.6580824 C488.951099,124.440505 532.921132,183.135188 535.436003,268.36041 L535.499522,270.951113 L530.500478,271.048887 C528.863603,187.357546 487.024505,129.899091 404.634205,98.2918018 L402.125116,97.3419176 L403.874884,92.6580824 Z" id="Path-9" fill="#000" fill-rule="nonzero"/></g></g><g id="Upper Body" transform="translate(333.000000, 655.000000) scale(1 1)"><g id="Upper Body/Coffee and Phone" stroke="none" stroke-width="1" fill="none" fill-rule="evenodd"><path d="M724.954254,220 C724.954254,220 721.26343,301.153386 673.924004,329.799638 C630.972611,355.790794 721.968632,506.610475 819.857852,497.613536 C873.442212,492.688212 886,346.158072 886,346.158072 C886,346.158072 842.733964,337.796917 858.715877,271.819367 L724.954254,220 Z" id="Neck" fill="#ecafa3"/><path d="M803.337113,302.515641 C739.876612,294.840687 694.077698,253.11575 687.664652,183.898064 C669.216286,186.83496 664.86504,138.764927 670.003065,123.322958 C675.146083,107.858975 691.933027,116.900812 691.933027,116.900812 C692.862251,114.457234 693.652358,111.898916 694.303348,109.225857 C722.02532,-4.48555283 799.669805,0.0243586862 799.669805,0.0243586862 C942.344355,7.45715716 908.914243,153.120195 900.762895,191.763142 C892.610548,230.410091 864.683894,309.927426 803.337113,302.515641 Z" id="Head" fill="#ecafa3"/><g id="Group-31" transform="translate(252.000000, 332.000000)"><path d="M124.228038,244 C11.2352329,423.00307 -24.4113903,531.60947 17.2881683,569.8192 C58.9877269,608.02893 138.53656,561.548058 255.934668,430.376584 C249.88449,401.088818 234.264802,369.134178 209.075603,334.512664 C183.886404,299.89115 155.603882,269.720262 124.228038,244 Z" id="Path" fill="#ecafa3"/><g id="Group-3" transform="translate(61.000000, 0.170000)" fill="#F9C818"><path d="M775.3187,371.0099 L692.8487,361.4099 C692.8487,361.4099 713.9487,645.2899 706.0187,645.2899 C701.759788,645.2899 602.695622,699 463.869422,699 C357.218623,699 226.3987,663.7299 220.8687,663.4299 C220.1887,663.3899 219.5287,662.9299 218.8987,662.0799 C220.6787,642.4999 222.0887,607.8799 223.5187,569.6499 C224.5187,542.8299 225.5387,514.2399 226.7087,487.8299 C227.7987,463.2599 229.0187,440.5799 230.4887,422.9599 C236.8887,346.1099 232.4587,275.9799 232.4587,275.9799 L200.8787,361.6799 L0.6787,288.7399 C0.6787,288.7399 67.5287,191.3099 147.2287,106.5709 C226.2987,22.4899 353.1187,1.1599 355.0987,0.8399 C355.1087,0.8299 355.1187,0.8299 355.1187,0.8299 C355.1187,0.8299 347.9987,116.8299 467.9687,125.7399 C567.7187,133.1499 572.8887,13.5899 572.8887,13.5899 C572.8887,13.5899 689.4887,44.0299 722.9387,72.5599 C756.3887,101.0899 903.9587,295.8799 903.9587,300.7999 C903.9587,305.7199 775.3187,371.0099 775.3187,371.0099 Z" id="Fill-1"/></g><path d="M287.7087,488.0002 C286.5387,514.4102 285.5187,543.0002 284.5187,569.8192 C284.2887,551.6492 285.0087,525.5202 287.7087,488.0002" id="Fill-4" fill="#F9C818"/><path d="M702.2694,404.5715 L597.3924,413.0945 C591.0714,413.6085 585.5294,408.9005 585.0154,402.5785 L568.2534,196.3425 C567.7404,190.0205 572.4484,184.4785 578.7704,183.9655 L683.6464,175.4415 C689.9684,174.9275 695.5104,179.6355 696.0244,185.9585 L712.7854,392.1935 C713.2994,398.5155 708.5914,404.0565 702.2694,404.5715" id="Fill-6" fill="#204EB2"/><path d="M712.9597,398.8557 L607.7047,407.4107 C601.4877,407.9167 596.0377,403.2857 595.5317,397.0677 L579.3497,197.9667 C578.8447,191.7507 583.4757,186.2997 589.6927,185.7947 L694.9477,177.2407 C701.1647,176.7347 706.6147,181.3657 707.1207,187.5837 L723.3027,386.6827 C723.8077,392.9007 719.1767,398.3507 712.9597,398.8557" id="Fill-8" fill="#1F9BEB"/><path d="M695.2557,199.9397 C695.7407,205.9117 691.2937,211.1457 685.3217,211.6307 C679.3507,212.1167 674.1157,207.6687 673.6307,201.6967 C673.1457,195.7257 677.5927,190.4917 683.5647,190.0057 C689.5357,189.5207 694.7707,193.9677 695.2557,199.9397" id="Fill-10" fill="#204EB2"/><g id="Group-14" transform="translate(597.000000, 271.170000)" fill="#ecafa3"><path d="M77.4915,120.4122 C77.4915,120.4122 24.8945,131.8762 24.5575,113.6692 C24.5575,113.6692 60.2965,98.8342 68.3885,99.5082 C76.4805,100.1832 113.9055,104.5652 113.9055,104.5652 L67.7135,81.6392 L21.8595,95.8002 C21.8595,95.8002 11.4075,96.4742 6.6875,89.0562 C1.9675,81.6392 7.3615,77.2562 7.3615,77.2562 L67.3765,57.3632 C67.3765,57.3632 69.3995,50.9572 54.2275,50.2822 C39.0545,49.6082 5.6755,47.2482 5.6755,47.2482 C5.6755,47.2482 -1.7415,40.8422 1.6295,29.3782 C5.0015,17.9152 23.8825,21.9612 23.8825,21.9612 C23.8825,21.9612 13.4305,11.8462 29.2775,0.7202 C29.2775,0.7202 77.8285,2.0682 95.6985,13.1942 C113.5675,24.3212 235.8865,99.4262 235.8865,99.4262 L331.0955,49.4172 C451.590946,196.91838 483.559113,284.305469 427,311.578469 C370.440887,338.851469 253.938054,275.12938 77.4915,120.4122 Z" id="Fill-12"/></g><path d="M727.306,325.2717 L679.503,298.1827 L619.978,291.8047 L620.404,287.8287 L680.341,294.2507 C680.613,294.2787 680.876,294.3637 681.114,294.4987 L729.278,321.7917 L727.306,325.2717 Z" id="Fill-15" fill="#000"/><polygon id="Fill-17" fill="#000" points="919.1846 425.2678 804.9306 353.4728 807.0586 350.0858 921.3126 421.8808"/><polygon id="Fill-17" fill="#000" transform="translate(144.427192, 377.066865) rotate(-64.000000) translate(-144.427192, -377.066865)" points="200.490192 414.657865 86.2361924 342.862865 88.3641924 339.475865 202.618192 411.270865"/><path d="M723.4331,347.2365 C723.1311,347.0325 693.1771,326.7545 685.3661,323.4995 C679.4071,321.0165 667.4941,325.5465 663.4071,327.5025 L661.6811,323.8925 C662.3471,323.5755 678.0911,316.1325 686.9041,319.8075 C695.0851,323.2155 724.4321,343.0815 725.6771,343.9255 L723.4331,347.2365 Z" id="Fill-19" fill="#000"/><polygon id="Fill-21" fill="#ecafa3" points="713.1401 268.1242 742.6541 313.2642 714.5871 295.6132"/><polygon id="Fill-23" fill="#000" points="741.5894 314.9572 713.5224 297.3072 715.6514 293.9202 743.7184 311.5702"/><path d="M349.7,425.014 L314.555,424.325 C277.55,423.599 248.139,393.011 248.865,356.006 L251.062,244 L410.887,247.136 L408.507,368.469 C407.883,400.323 381.554,425.639 349.7,425.014" id="Fill-27" fill="#FFF"/></g><g id="Group" transform="translate(455.000000, 614.711100)"><path d="M44.5615768,2.84217094e-14 C44.5615768,2.84217094e-14 30.1385768,9.272 25.5025768,14.938 C20.8665768,20.604 24.9875768,21.635 14.6855768,32.452 C4.38357684,43.27 -14.1604232,70.57 18.2905768,112.294 C50.7435768,154.018 61.5605768,150.411 74.9535768,143.2 C88.3455768,135.988 89.8915768,130.838 115.131577,128.262 C140.371577,125.687 164.581577,100.961 164.066577,94.78 L163.551577,88.599 C163.551577,88.599 186.730577,79.842 185.186577,70.055 C183.640577,60.268 176.944577,61.298 176.944577,61.298 C176.944577,61.298 181.580577,56.662 177.974577,48.42 C174.368577,40.179 157.370577,41.724 137.795577,44.3 C118.222577,46.875 67.7415768,57.177 64.6505768,55.117 C61.5605768,53.057 62.5905768,49.966 74.4375768,48.42 C86.2855768,46.875 134.190577,46.36 134.190577,32.967 C134.190577,19.574 119.767577,16.999 91.9515768,17.514 C64.1355768,18.029 58.9845768,16.483 52.2885768,19.06 L45.5915768,21.635 L44.5615768,2.84217094e-14 Z" id="Fill-12" fill="#ecafa3"/><path d="M177.350177,61.2402 C177.350177,61.2402 178.830177,60.1722 167.807177,64.3812 C163.793177,65.9132 158.133177,67.5122 150.159177,69.0242 C120.282177,74.6902 73.4081768,84.9932 58.9851768,87.0532 C44.5611768,89.1142 56.4091768,92.2042 89.3761768,85.5082 C122.343177,78.8112 161.588177,69.8282 163.350177,69.2402 C166.350177,68.2402 175.350177,65.2402 177.350177,61.2402" id="Fill-14" fill="#000"/><path d="M152.733877,91.6895 C152.733877,91.6895 128.349877,100.2405 116.349877,103.2405 C103.608877,106.4255 94.0118768,110.7485 91.4368768,106.6275 C88.8608768,102.5065 85.7698768,101.4765 85.7698768,101.4765 L81.6498768,106.1125 C81.6498768,106.1125 82.3498768,111.2405 80.1038768,111.7785 C76.0968768,112.7395 68.2558768,114.3545 68.2558768,114.3545 C68.2558768,114.3545 68.3498768,117.2405 92.3498768,112.2405 C98.3048768,111.0005 109.349877,109.2405 116.349877,107.2405 C122.788877,105.4005 146.037877,99.4165 149.128877,96.8405 C152.218877,94.2645 152.733877,91.6895 152.733877,91.6895" id="Fill-16" fill="#000"/><path d="M77.0131768,89.1143 C77.0131768,89.1143 76.6331768,109.8573 82.4891768,109.5303 C88.3461768,109.2033 90.4061768,109.2033 91.4361768,107.6573 C92.4671768,106.1123 89.8911768,100.9613 89.8911768,95.2953 C89.8911768,89.6293 89.8911768,87.0533 85.2551768,87.5683 C80.6191768,88.0843 77.5281768,88.0843 77.0131768,89.1143" id="Fill-18" fill="#F9C818"/></g></g></g><g id="Expression" transform="translate(1055.000000, 738.000000) scale(1 1)" fill="#000"><g id="Expression/Sweet" stroke="none" stroke-width="1" fill="none" fill-rule="evenodd"><g id="Group-124" transform="translate(25.000000, 52.000000)" fill="#000" fill-rule="nonzero"><path d="M98.9388073,0.515726772 L102.747593,1.73767323 L102.375135,2.93095324 C102.075892,3.9043293 101.742122,5.01790967 101.382468,6.25291663 C100.354215,9.78380887 99.3257634,13.5761133 98.3662837,17.478955 C97.2996742,21.8175645 96.3854385,26.0250163 95.6702376,29.9976992 L95.4631649,31.1740325 C93.7257688,41.2776329 93.4803733,48.9926374 95.0328764,53.1417647 L95.1244408,53.3771728 C104.002358,75.340079 91.9464166,86.4779502 66.6424816,78.6786942 L65.8716485,78.4365483 L67.0907515,74.6268517 C89.8846425,81.9208968 99.0260452,73.7026714 91.4159925,54.8763096 C89.3210345,49.6942966 89.6433125,40.8993486 91.7335247,29.288974 C92.4647551,25.2272527 93.3964651,20.9393815 94.4819426,16.5240234 C95.3476055,13.0027971 96.2678852,9.57278889 97.1943734,6.33814281 L97.5420029,5.13451153 C97.7507758,4.41761123 97.9510908,3.74056192 98.1413397,3.10683734 L98.6297394,1.50244969 L98.9388073,0.515726772 Z" id="Stroke-114"/><path d="M0.1850015,153.534088 L2.1419985,150.045512 L2.85620174,150.434727 L3.51128674,150.782909 C4.50308988,151.305335 5.6321651,151.880908 6.88714027,152.498006 L7.43266178,152.764985 C11.6537624,154.821142 16.3218862,156.878362 21.3004212,158.797989 C32.7483158,163.212076 44.0600582,166.224884 54.584272,167.202241 C59.3535856,167.645156 63.8735301,167.656119 68.1063644,167.201856 L68.9490919,167.10479 L69.4379081,171.07481 C64.6629697,171.662733 59.5745075,171.682884 54.2143935,171.185103 C43.2765951,170.169337 31.6251616,167.066055 19.8613669,162.530163 C14.7706849,160.567294 9.99959664,158.464698 5.68097489,156.361037 L4.04785364,155.55429 C3.35348222,155.206284 2.70158001,154.872883 2.09423579,154.556252 L0.962732129,153.958187 L0.1850015,153.534088 Z" id="Stroke-122"/></g><g id="Group-16" transform="translate(28.000000, 18.000000)" fill="#000"><path d="M70.0371,143.9951 C51.1661,143.9951 36.9381,135.3511 36.2701,134.9381 C34.8611,134.0681 34.4251,132.2191 35.2961,130.8091 C36.1651,129.4011 38.0141,128.9631 39.4241,129.8341 C39.7061,130.0061 56.4191,140.0481 76.5681,137.6031 C78.2011,137.4051 79.7071,138.5751 79.9081,140.2201 C80.1081,141.8641 78.9361,143.3601 77.2911,143.5591 C74.8141,143.8611 72.3881,143.9951 70.0371,143.9951" id="Fill-3"/><path d="M77.8252,115.1664 C73.7822,115.1664 68.7382,114.3754 62.4432,112.3614 L63.6612,108.5514 C75.3852,112.3024 84.0452,111.9964 88.0462,107.6874 C91.4492,104.0204 91.4282,97.3134 87.9872,88.8014 C85.6522,83.0264 86.2292,72.0734 89.7022,56.2454 C92.2432,44.6624 95.4772,34.5414 95.5102,34.4404 L99.3182,35.6624 C95.8112,46.5954 87.6062,77.1874 91.6952,87.3024 C96.8932,100.1604 94.1742,106.9644 90.9772,110.4084 C88.6972,112.8664 84.7182,115.1664 77.8252,115.1664" id="Fill-5"/><g id="Group-9" transform="translate(0.000000, 0.956000)"><path d="M64.1387,28.4316 C63.5377,28.4316 62.9257,28.3316 62.3267,28.1226 C56.4907,26.0866 39.6337,20.6746 31.8217,20.0966 C24.4657,19.5516 13.2427,23.1856 9.5387,24.6326 C6.7097,25.7366 3.5207,24.3416 2.4147,21.5146 C1.3077,18.6866 2.7007,15.4986 5.5277,14.3896 C6.1637,14.1406 21.2597,8.2836 32.6337,9.1266 C43.4887,9.9306 65.0387,17.4186 65.9507,17.7376 C68.8187,18.7386 70.3317,21.8746 69.3317,24.7426 C68.5397,27.0106 66.4127,28.4316 64.1387,28.4316" id="Fill-7" transform="translate(35.837276, 18.737642) rotate(-15.000000) translate(-35.837276, -18.737642)"/></g><path d="M153.6772,46.1645 C152.5752,46.1645 151.4632,45.8265 150.5062,45.1245 C147.4472,42.8845 138.0022,36.8175 131.1372,35.6695 C123.8122,34.4455 106.9602,35.8295 101.0842,36.4645 C98.1372,36.7795 95.4882,34.6525 95.1692,31.7055 C94.8492,28.7575 96.9802,26.1085 99.9272,25.7895 C100.8492,25.6895 122.6282,23.3615 132.9072,25.0795 C143.7152,26.8855 156.3282,36.0775 156.8602,36.4685 C159.2492,38.2235 159.7642,41.5835 158.0092,43.9735 C156.9572,45.4055 155.3282,46.1645 153.6772,46.1645" id="Fill-10" transform="translate(127.094171, 35.306880) rotate(22.000000) translate(-127.094171, -35.306880)"/></g><g id="Group-19" transform="translate(63.000000, 68.000000)" fill="#000"><path d="M12.5215,6.6586 C12.5215,9.9056 9.8885,12.5386 6.6415,12.5386 C3.3945,12.5386 0.7615,9.9056 0.7615,6.6586 C0.7615,3.4106 3.3945,0.7786 6.6415,0.7786 C9.8885,0.7786 12.5215,3.4106 12.5215,6.6586" id="Fill-10"/><path d="M87.7615,13.3383 C87.7615,16.5863 85.1285,19.2183 81.8815,19.2183 C78.6345,19.2183 76.0015,16.5863 76.0015,13.3383 C76.0015,10.0913 78.6345,7.4583 81.8815,7.4583 C85.1285,7.4583 87.7615,10.0913 87.7615,13.3383" id="Fill-12"/></g></g></g><g id="Hairstyle" transform="translate(564.000000, 411.000000) scale(1 1)"><defs><polygon id="hairstyleshort-hair-path-1" points="0 0.00068458796 256.477 0.00068458796 256.477 187.855 0 187.855"/></defs><g id="Hairstyle/Short Hair" stroke="none" stroke-width="1" fill="none" fill-rule="evenodd"><g id="Group-3" transform="translate(452.000000, 197.000000)"><mask id="hairstyleshort-hair-mask-2" fill="#ffffff"><use xlink:href="#hairstyleshort-hair-path-1" fill="#ffffff"/></mask><g id="Clip-2"/><path d="M9.0688,167.6793 C9.0688,167.6793 12.1858,169.5373 11.0758,187.8553 C11.0758,187.8553 19.4018,179.5293 21.6218,169.5373 C23.8418,159.5463 38.8288,130.6823 51.5958,122.9103 C64.3628,115.1403 84.3458,115.6953 96.0018,97.9333 L107.6588,80.1703 C107.6588,80.1703 182.0388,85.1653 214.2328,109.0343 C214.2328,109.0343 229.2198,115.6953 225.8898,180.6393 C225.8898,180.6393 231.9958,145.6693 233.1058,127.9073 C234.2158,110.1443 241.9868,138.4533 238.6568,153.9953 C238.6568,153.9953 257.6618,137.7753 256.4188,102.9283 C254.7288,55.5333 231.6968,41.8383 216.4538,30.7693 C198.4878,17.7223 145.4818,-11.0527 112.1778,4.4893 C78.8728,20.0313 80.4598,23.5523 64.9178,29.6583 C49.3758,35.7643 29.9478,32.9893 13.2958,45.2003 C-3.3562,57.4123 0.3518,161.1243 0.3518,161.1243 C0.3518,161.1243 6.9378,163.7943 9.0688,167.6793" id="Fill-1" fill="#0f0f0f" mask="url(#hairstyleshort-hair-mask-2)"/></g></g></g><g id="Accessories" transform="translate(1008.000000, 771.000000) scale(1 1)" fill="#000"><g id="Accessories/None" stroke="none" stroke-width="1" fill="none" fill-rule="evenodd" fill-opacity="0"/></g><g id="Facial Hair" transform="translate(1018.000000, 772.000000) scale(1 1)"><g id="Facial Hair/None" stroke="none" stroke-width="1" fill="none" fill-rule="evenodd" fill-opacity="0"/></g></g></svg>